# xmcd CD database file
#
# Track frame offsets:
#	150
#	8806
#	23796
#	38318
#	54248
#	70980
#	90551
#	107403
#	124584
#	137218
#	150331
#	169869
#
# Disc length: 2518 seconds
#
# Revision: 4
# Processed by: cddbd v1.5.2PL0 Copyright (c) Steve Scherf et al.
# Submitted via: CDex 2.05
#
DISCID=8509d40c
DTITLE=Slayer - Repentless
DYEAR=2015
DGENRE=Metal
TTITLE0=Delusions of Saviour
TTITLE1=Repentless
TTITLE2=Take Control
TTITLE3=Vices
TTITLE4=Cast the First Stone
TTITLE5=When the Stillness Comes
TTITLE6=Chasing Death
TTITLE7=Implode
TTITLE8=Piano Wire
TTITLE9=Atrocity Vendor
TTITLE10=You Against You
TTITLE11=Pride in Prejudice
EXTD=YEAR: 2015
EXTT0=
EXTT1=
EXTT2=
EXTT3=
EXTT4=
EXTT5=
EXTT6=
EXTT7=
EXTT8=
EXTT9=
EXTT10=
EXTT11=
PLAYORDER=
